# xmcd
#
# Track frame offsets: 
#        150
#        19947
#        35634
#        61770
#        83103
#        98596
#        120907
#        140236
#        186120
#        208066
#        232036
#
# Disc length: 3390 seconds
#
# Revision: 7
# Processed by: cddbd v1.5.2PL0 Copyright (c) Steve Scherf et al.
# Submitted via: ExactAudioCopyFreeDBPlugin 1.0
#
DISCID=930d3c0b
DTITLE=Dee Dee Bridgewater - J'ai Deux Amours
DYEAR=2005
DGENRE=Blues
TTITLE0=J'Ai Deux Amours
TTITLE1=La Mer (Beyond The Sea)
TTITLE2=Ne Me Quitte Pas
TTITLE3=Mon Homme (My Man)
TTITLE4=Et Maintenant
TTITLE5=Que Reste-T-Il De Nos Amours
TTITLE6=Dansez Sur Moi (Girl Talk)
TTITLE7=La Belle Vie (The Good Life)
TTITLE8=Avec Le Temps
TTITLE9=La Vie En Rose
TTITLE10=Les Feuilles Mortes
EXTD=YEAR: 2005
EXTT0=
EXTT1=
EXTT2=
EXTT3=
EXTT4=
EXTT5=
EXTT6=
EXTT7=
EXTT8=
EXTT9=
EXTT10=
PLAYORDER=
